<?xml version="1.0" encoding="UTF-8"?>
<svg id="Layer_1" xmlns="http://www.w3.org/2000/svg" viewBox="0 0 500 500">
  <defs>
    <style>
      .cls-1 {
        fill: #fff;
      }

      .cls-2 {
        fill: #1a1a1a;
      }
    </style>
  </defs>
  <rect class="cls-2" width="500" height="500" rx="68.63" ry="68.63"/>
  <g>
    <path class="cls-1" d="M174.87,160.02h-28.78v-19.24c0-5.59-.31-9.08-.92-10.47-.62-1.39-1.97-2.08-4.07-2.08-2.37,0-3.87.84-4.51,2.53-.64,1.69-.96,5.33-.96,10.94v51.41c0,5.38.32,8.89.96,10.53.64,1.64,2.07,2.46,4.31,2.46s3.54-.82,4.2-2.47c.66-1.65.99-5.5.99-11.58v-13.91h28.78v4.31c0,11.46-.81,19.58-2.43,24.37-1.62,4.79-5.2,8.99-10.73,12.6-5.54,3.6-12.36,5.41-20.47,5.41s-15.38-1.53-20.85-4.58-9.09-7.28-10.87-12.68-2.67-13.52-2.67-24.37v-32.33c0-7.97.27-13.96.82-17.94.55-3.99,2.18-7.83,4.89-11.52,2.71-3.69,6.47-6.6,11.28-8.72,4.81-2.12,10.33-3.18,16.58-3.18,8.48,0,15.47,1.64,20.99,4.92,5.51,3.28,9.14,7.36,10.87,12.25,1.73,4.89,2.6,12.5,2.6,22.83v10.51Z"/>
    <path class="cls-1" d="M212.81,111.83v110.67h-28.44v-110.67h28.44Z"/>
    <path class="cls-1" d="M251.16,111.83v14.42h-28.44v-14.42h28.44ZM251.16,131.79v90.71h-28.44v-90.71h28.44Z"/>
    <path class="cls-1" d="M322.12,166.03h-26.05v-10.46c0-3.65-.3-6.12-.89-7.42-.59-1.3-1.69-1.95-3.28-1.95s-2.67.57-3.21,1.71c-.55,1.14-.82,3.69-.82,7.66v42.79c0,3.24.41,5.66,1.23,7.28.82,1.62,2.03,2.43,3.62,2.43,1.87,0,3.13-.84,3.79-2.53.66-1.69.99-4.88.99-9.57v-10.8h24.61c-.05,7.25-.31,12.68-.79,16.3s-2.01,7.34-4.58,11.14c-2.57,3.81-5.94,6.68-10.08,8.61s-9.27,2.91-15.38,2.91c-7.79,0-13.97-1.33-18.53-4-4.56-2.67-7.78-6.4-9.67-11.21-1.89-4.81-2.84-11.63-2.84-20.47v-25.77c0-7.7.77-13.51,2.32-17.43,1.55-3.92,4.85-7.42,9.91-10.49s11.21-4.61,18.46-4.61,13.35,1.53,18.46,4.58c5.1,3.05,8.5,6.9,10.19,11.55,1.69,4.65,2.53,11.23,2.53,19.76Z"/>
    <path class="cls-1" d="M389.8,131.79l-11.21,36.13,14.56,54.58h-26.56l-8.61-39.54-.03,39.54h-27.62v-110.67h27.62l.03,46.46,8.61-26.5h23.21Z"/>
    <path class="cls-1" d="M262.41,279.83v110.67h-25.16l-.03-74.72-10.01,74.72h-17.84l-10.56-73.01-.03,73.01h-25.16v-110.67h37.24c1.1,6.65,2.24,14.5,3.42,23.53l4.09,28.15,6.61-51.68h37.44Z"/>
    <path class="cls-1" d="M273.96,279.83h47.99v22.15h-19.21v20.99h17.98v21.05h-17.98v24.34h21.12v22.15h-49.9v-110.67Z"/>
  </g>
</svg>